<?xml version="1.0" encoding="utf-8"?>

<!DOCTYPE svg PUBLIC "-//W3C//DTD SVG 1.1//EN" "http://www.w3.org/Graphics/SVG/1.1/DTD/svg11.dtd">
<!-- Uploaded to: SVG Repo, www.svgrepo.com, Generator: SVG Repo Mixer Tools -->
<svg height="800px" width="800px" version="1.1" id="_x32_" xmlns="http://www.w3.org/2000/svg" xmlns:xlink="http://www.w3.org/1999/xlink" 
	 viewBox="0 0 512 512"  xml:space="preserve">
<style type="text/css">
	.st0{fill:#000000;}
</style>
<g>
	<path class="st0" d="M290.121,377.112c-17.02-6.365-41.85-24.953-41.85-36.525c0-7.666,0-17.244,0-30.371
		c9.848-10.946,17.324-33.169,21.771-58.359c10.371-3.702,16.293-9.628,23.701-35.552c7.883-27.615-11.855-26.677-11.855-26.677
		c15.955-52.805-5.042-102.432-40.215-98.789c-24.259-42.442-105.512,9.695-130.981,6.061c0,14.556,6.065,25.468,6.065,25.468
		c-8.85,16.804-5.439,50.312-2.946,67.26c-1.441-0.026-19.28,0.16-11.711,26.677c7.405,25.925,13.326,31.85,23.702,35.552
		c4.442,25.19,11.919,47.413,21.767,58.359c0,13.127,0,22.705,0,30.371c0,11.572-26.369,31.064-41.85,36.525
		C73.741,388.372-4.838,420.754,0.234,481.412c1.213,14.556,81.258,29.662,197.686,29.662c116.426,0,196.47-15.105,197.687-29.662
		C400.684,420.696,321.904,388.997,290.121,377.112z"/>
	<path class="st0" d="M503.504,57.654c-8.174-17.049-21.597-31.191-38.198-41.106C448.688,6.641,428.841,0.943,407.53,0.926
		c-28.372,0.016-54.22,10.135-73.222,26.897c-9.497,8.386-17.295,18.461-22.726,29.83c-5.444,11.352-8.5,24.006-8.5,37.26
		c-0.008,16.889,4.983,32.78,13.529,46.313c7.3,11.572,17.172,21.47,28.816,29.213l-17.535,43.802l12.662-1.563
		c43.748-5.469,85.623-21.842,105.513-30.438c18.896-6.746,35.206-18.276,46.947-33.254c11.818-15.08,18.998-33.821,18.986-54.073
		C512.012,81.659,508.94,69.006,503.504,57.654z M482.035,138.26c-9.831,12.57-24.011,22.73-40.798,28.63l-0.228,0.068l-0.228,0.102
		c-17.21,7.472-52.024,21.039-89.03,27.48l12.544-31.293l-6.158-3.524c-12.426-7.1-22.598-16.77-29.602-27.869
		c-7.012-11.133-10.858-23.626-10.87-36.939c0-10.456,2.379-20.389,6.775-29.586c6.581-13.769,17.802-25.815,32.205-34.412
		c14.408-8.596,31.948-13.702,50.886-13.693c25.291-0.009,48.026,9.078,64.2,23.372c8.081,7.143,14.523,15.554,18.909,24.733
		c4.391,9.197,6.771,19.129,6.779,29.586C497.41,110.839,491.882,125.665,482.035,138.26z"/>
	<path class="st0" d="M366.34,84.542c-6.264,0-11.34,5.68-11.34,12.662c0,6.999,5.076,12.671,11.34,12.671
		c6.264,0,11.348-5.672,11.348-12.671C377.688,90.222,372.604,84.542,366.34,84.542z"/>
	<path class="st0" d="M410.096,84.542c-6.268,0-11.352,5.68-11.352,12.662c0,6.999,5.084,12.671,11.352,12.671
		c6.264,0,11.344-5.672,11.344-12.671C421.44,90.222,416.36,84.542,410.096,84.542z"/>
	<path class="st0" d="M453.84,84.542c-6.263,0-11.343,5.68-11.343,12.662c0,6.999,5.08,12.671,11.343,12.671
		c6.272,0,11.353-5.672,11.353-12.671C465.192,90.222,460.112,84.542,453.84,84.542z"/>
</g>
</svg>