<?xml version="1.0" encoding="UTF-8" standalone="no"?>
<svg
   preserveAspectRatio="none"
   viewBox="0 0 656.29859 166.97088"
   height="166.97089"
   width="656.29858"
   xml:space="preserve"
   id="svg2"
   version="1.1"
   sodipodi:docname="1.svg"
   inkscape:version="1.3 (0e150ed6c4, 2023-07-21)"
   xmlns:inkscape="http://www.inkscape.org/namespaces/inkscape"
   xmlns:sodipodi="http://sodipodi.sourceforge.net/DTD/sodipodi-0.dtd"
   xmlns="http://www.w3.org/2000/svg"
   xmlns:svg="http://www.w3.org/2000/svg"
   xmlns:rdf="http://www.w3.org/1999/02/22-rdf-syntax-ns#"
   xmlns:cc="http://creativecommons.org/ns#"
   xmlns:dc="http://purl.org/dc/elements/1.1/"><sodipodi:namedview
     id="namedview1"
     pagecolor="#ffffff"
     bordercolor="#000000"
     borderopacity="0.25"
     inkscape:showpageshadow="2"
     inkscape:pageopacity="0.0"
     inkscape:pagecheckerboard="0"
     inkscape:deskcolor="#d1d1d1"
     inkscape:zoom="0.57434705"
     inkscape:cx="303.82327"
     inkscape:cy="512.75619"
     inkscape:window-width="1920"
     inkscape:window-height="1017"
     inkscape:window-x="-8"
     inkscape:window-y="-8"
     inkscape:window-maximized="1"
     inkscape:current-layer="g12" /><metadata
     id="metadata8"><rdf:RDF><cc:Work
         rdf:about=""><dc:format>image/svg+xml</dc:format><dc:type
           rdf:resource="http://purl.org/dc/dcmitype/StillImage" /></cc:Work></rdf:RDF></metadata><defs
     id="defs6" /><g
     transform="matrix(1.3333333,0,0,-1.3333333,-37.828932,913.51409)"
     id="g10"><g
       transform="matrix(0.1,0,0,0.1,253.92448,-150.50797)"
       id="g12"><path
         id="path14"
         style="fill:#16643d;fill-opacity:1;fill-rule:evenodd;stroke:none"
         d="m 1950.8084,7975.9639 c -9.28,6.81 -35.33,-3.27 -37.48,-5.13 -13.45,-12.17 44.96,-0.39 37.48,5.13 z m 491.4,-574.03 c -15.55,-15.82 -76.4,1.69 -109.93,-0.88 0.56,-8.67 21.06,-7.44 35.03,-9.44 l -7.78,-10.6 17.54,-4.72 c -18.53,-8.96 -62.24,-12.21 -73.63,-3.01 11.73,-11.3 10.06,-18.54 -15.73,-21.17 60.9,-5.99 120.47,-24.28 263.33,-30.29 -56.74,-28.44 -106.93,-27.38 -119.48,-59.23 -16.04,0.97 -32.19,1.92 -48.31,2.86 l 7.87,10.57 -17.58,4.75 c 18.91,23.36 -78.69,22.63 -83.29,12.27 14.18,0.37 21.23,-2.88 22.95,-8.7 l -18.7,-2.6 4.22,-11.31 c -65.8,-6.03 -132.04,-11.75 -219.8,-1.73 69.37,-28.16 253.74,0.66 285.08,-46.29 -66.45,-37.35 -96.96,5.78 -173.85,-19.19 -5.07,-18.16 14.79,-23.94 31.51,-31.31 -238.36,-9.78 -475.85,-0.09 -718.69,5.6 -356.79,8.36 -663.70004,-11.96 -1049.47004,-4.29 -343.22,6.83 -650.04,-40.08 -950.37,-69.07 -2.15,10.1 -29.31,7.83 -47.1,10.17 -1.55,11.97 13.45,11.86 15.6,21.12 -43.97,-14.57 -58.11,-0.24 -64,-18.29 -30.86,1.49 -13.75,6.28 -9.63,15.31 -217.12,-14.13 -559.99996,-31.34 -704.13996,19.48 -13.93,-0.55 -7.91,-6.92 -1.21,-7.28 -3.35,-8.44 -23.036,-4.86 -37.473,-5.16 l 7.863,10.6 -18.695,-2.58 c 0.387,2.43 0.773,4.85 1.203,7.28 -42.031,6.41 -50.543,24.61 -95.453,13.03 l 7.781,10.57 -18.652,-2.6 c -17.621,13.06 -51.621,-3.51 -96.66,5.71 -0.903,17.43 -39.711,16.05 -30.254,38.62 l 19.511,7.43 -3.828,13.76 c 13.797,-2.02 21.746,0.34 25.356,5.84 -9.11,4.43 -18.395,8.79 -35.067,9.48 l 8.25,12.98 -16.761,9.6 c 6.578,7.76 88.882,13.11 27.761,20.44 l 7.825,10.59 -18.735,-2.57 c -13.758,22.24 -124.98,-3.9 -103.922,35.58 -42.121,5.95 -118.32,-5.03 -105.129,28.3 l 18.743,2.62 -4.297,11.28 c 38.379,-8.53 101.168,6.49 65.238,25.6 -9.582,-9.33 -28.105,-12.06 -50.758,-11.73 l -4.25,11.3 -18.652,-2.56 c -6.406,6.92 -12.512,13.91 2.316,14.57 -6.961,25.17 -21.875,4.94 -59.176,10.87 -7.996,44.03 34.942,50.57 60.208,70.08 -24.836,21.17 -66.446,34.06 -128.032,37.03 3.653,13 -12.246,16.27 -7.347,29.91 -54.496,11 -43.84,2.81 -107.489,13.71 11.559,32.51 -39.925,33.8 -91.843,34.9 -13.024,47.7 85.179,13.58 114.668,30.04 -6.879,18.93 -61.977,13.92 -80.973,26.88 10.141,14.33 57.246,1.44 63.996,18.31 l 17.531,-4.71 17.492,-4.72 c 68.164,-9.2 71,8.33 1.207,7.28 l -12.296,11.78 -22.778,-2.34 c -9.148,14.07 -62.746,-7.64 -97.773,-1.6 -50.453,0.35 46.89,38.75 -42.332,39.33 l -4.297,11.3 -7.824,-10.59 c -32.578,17.27 -55.442,19.36 -80.9652,26.9 -0.9922,33.39 70.8242,13.24 90.5082,31.48 -29.227,18.91 -76.7582,8.73 -94.2113,20.31 12.7266,0.52 51.2303,10.81 -9.7109,15.3 11.5156,7.86 19.1679,18.59 18.0507,35.74 38.6365,-3.92 53.2505,9.9 97.8165,1.59 -1.457,11.99 13.496,11.86 15.687,21.18 -10.441,10.45 -30.3,16.25 -31.503,31.29 l 7.265,6.96 -4.855,7.63 c 31.461,-4.01 14.183,27.75 51.918,19.05 4.636,15.7 -42.289,5.84 -59.184,10.86 -1.504,11.98 13.449,11.89 15.645,21.18 -17.235,0.38 -34.426,0.81 -35.028,9.45 l 19.516,7.44 -3.867,13.7 c 49.933,-9.5 69.453,3.42 88.101,16.89 -8.765,13.52 -23.293,24.2 -43.496,32.04 l 8.211,13.03 -16.719,9.56 c -3.089,15.88 19.512,12.89 38.594,12.44 2.754,25.8 -17.23,3.05 -45.898,17.45 48.347,7.78 74.222,67.3 129.148,43.94 -4.301,6.81 -8.465,13.69 -21.793,16.01 110.324,24.28 219.059,16.64 300.676,48.55 l 19.512,7.41 -3.868,13.73 c 247.723,-9.48 479.717,58.88 731.73696,74.63 424.71,26.52 806.79,37.82 1309.15,25.79 399.91,-9.56 713.31004,-18.8 1105.09004,-28.45 107.06,-67.67 346.88,-3.67 400.04,-89.92 -65.84,8.34 -27.41,-9.23 -64.03,-18.34 -59.92,8.7 -86.22,-7.38 -146.13,1.31 27.68,-22.05 138,-3.05 166.67,-24.61 -26.26,-23.55 -31.2,-19.94 32.71,-24 l -8.25,-13.02 16.71,-9.59 c -39.93,-14.2 -108.04,-7.67 -160.56,-12.59 67.09,-19.25 204.83,-20.07 277.8,-16.44 l -8.2,-13 16.67,-9.58 c 5.03,-10.9 15.95,-18.93 32.71,-24.03 l -7.91,-10.59 17.49,-4.71 c -3.22,-5.8 -13.28,-6.57 -14.39,-13.9 l -1.16,-7.28 12.03,-0.72 c -2.54,-18.67 -10.4,-8.33 -25.32,-5.84 -7.17,-32.19 34.68,1.4 45.9,-17.45 l 4.3,-11.28 7.73,10.57 c 9.55,-13.19 37.7,-17.08 43.59,-32.06 8.55,-22.67 -29.02,-11.3 -50.68,-11.73 20.98,-32.04 80.41,-14.87 93.05,-27.59 l -8.25,-13.03 16.68,-9.56 c 1.25,-6.34 -5.8,-6.6 -13.24,-6.57 2.58,-16.64 59.1,-6.47 83.34,-12.3 -0.56,-13.17 -17.28,-14.5 -16.85,-28.47 133.18,-21.08 202.68,9.74 270.68,-60.17 -24.2,1.42 -48.32,2.86 -72.47,4.28 0.52,-8.66 20.97,-7.46 34.98,-9.44 -32.14,-20.45 -109.46,-5.22 -195.59,-3.16 10.88,-28.3 163.96,-21.25 178.79,-25.31 35.8,-9.35 -17.06,-18.65 -16.85,-28.45 4.01,-0.24 8.04,-0.47 12.08,-0.73 l -7.86,-10.58 4.3,-11.3 c -47.8,-8.49 -110.76,-5.69 -171.49,-4.59 61.51,-27.94 231.65,-11.61 349.03,-27.98 l -8.22,-13.05 16.77,-9.56 c 2.36,-12.66 -11.74,-13.22 -26.61,-13.15 -4.59,-15.71 42.33,-5.85 59.19,-10.87 l -7.82,-10.6 4.29,-11.28 c -0.39,-2.45 -0.86,-4.85 -1.25,-7.31 l -17.4,4.71 4.12,-11.29 c -3.22,-5.78 -13.28,-6.55 -14.44,-13.85 -1.11,-16.2 50.72,-6.13 71.31,-11.61 11.08,-24.45 -40.02,-3.24 -28.93,-27.74 -131.9,3.67 -151.84,-2.3 -292.29,2.54 116.64,-18.16 174.27,-32.92 312.83,-25.83 14.57,-18.44 15.39,-19.02 32.67,-24.05 2.75,-32.02 -85.01,2.62 -100.23,-16.16 12.3,-9.6 32.36,-15.26 18.27,-37.91 -96.1,13.41 -155.5,-0.08 -231.95,-1.05 36.27,-6.53 43.88,-27.39 79.8,-34.14 l -7.86,-10.6 17.53,-4.7" /><path
         id="path16"
         style="fill:#231f20;fill-opacity:1;fill-rule:evenodd;stroke:none"
         d="m -1789.3916,7384.8939 -5.113,-12.6 c -6.144,-11.17 -20.242,7.63 -25.398,-5.87 -32.149,11.35 11.258,34.39 30.172,35.06 l 4.25,-11.31 17.496,-4.71 -21.407,-0.57" /><path
         id="path18"
         style="fill:#231f20;fill-opacity:1;fill-rule:evenodd;stroke:none"
         d="m -2156.8916,7728.7939 6.661,3.31 c 4.039,-16.87 20.285,7.74 34.984,-9.43 -25.441,-6.32 -36.445,0.34 -97.777,-1.59 13.797,11.09 34.941,14.89 49.468,4.45 0.43,2.42 0.821,4.86 1.204,7.28 l 5.46,-4.02" /><path
         id="path20"
         style="fill:none;stroke:#231f20;stroke-width:20.0494;stroke-linecap:round;stroke-linejoin:miter;stroke-miterlimit:4;stroke-dasharray:none;stroke-opacity:1"
         d="m 2529.2384,7374.7039 c -56.51,1.22 -113.67,11.08 -169.71,6.31" /><path
         id="path22"
         style="fill:none;stroke:#231f20;stroke-width:12.1767;stroke-linecap:round;stroke-linejoin:miter;stroke-miterlimit:4;stroke-dasharray:none;stroke-opacity:1"
         d="m -1554.6446,7310.2539 c -8.727,-3.5 -17.059,-4.75 -25.356,-5.84" /><path
         id="path24"
         style="fill:none;stroke:#231f20;stroke-width:24.047;stroke-linecap:round;stroke-linejoin:miter;stroke-miterlimit:4;stroke-dasharray:none;stroke-opacity:1"
         d="m -1763.6876,7374.1839 c -8.512,3.24 -17.106,6.86 -25.704,10.71" /><path
         id="path26"
         style="fill:none;stroke:#231f20;stroke-width:22.6172;stroke-linecap:round;stroke-linejoin:miter;stroke-miterlimit:4;stroke-dasharray:none;stroke-opacity:1"
         d="m -1785.4806,7390.1739 c 9.246,6.64 18.355,12.81 27.726,20.46" /><path
         id="path28"
         style="fill:none;stroke:#231f20;stroke-width:29.3253;stroke-linecap:round;stroke-linejoin:miter;stroke-miterlimit:4;stroke-dasharray:none;stroke-opacity:1"
         d="m -1992.5476,7689.6639 c 1.246,4.84 3.781,9.59 6.403,14.34" /><path
         id="path30"
         style="fill:none;stroke:#231f20;stroke-width:10.8911;stroke-linecap:round;stroke-linejoin:miter;stroke-miterlimit:4;stroke-dasharray:none;stroke-opacity:1"
         d="m -2156.8916,7728.7939 c 1.543,9.39 2.446,14.96 3.567,21.9" /><path
         id="path32"
         style="fill:none;stroke:#231f20;stroke-width:15.6412;stroke-linecap:round;stroke-linejoin:miter;stroke-miterlimit:4;stroke-dasharray:none;stroke-opacity:1"
         d="m -2221.2736,7931.4839 c 24.629,-3.7 48.433,2.81 73.062,-0.63" /><path
         id="path34"
         style="fill:none;stroke:#231f20;stroke-width:29.0714;stroke-linecap:round;stroke-linejoin:miter;stroke-miterlimit:4;stroke-dasharray:none;stroke-opacity:1"
         d="m -2183.9266,8010.3039 c 7.953,-0.77 15.817,-2.3 23.727,-3.84" /><path
         id="path36"
         style="fill:none;stroke:#231f20;stroke-width:27.6601;stroke-linecap:round;stroke-linejoin:miter;stroke-miterlimit:4;stroke-dasharray:none;stroke-opacity:1"
         d="m -2148.4696,8078.1639 c 12.418,1.7 24.797,2.48 37.219,3.96" /><path
         id="path38"
         style="fill:none;stroke:#231f20;stroke-width:26.6777;stroke-linecap:round;stroke-linejoin:miter;stroke-miterlimit:4;stroke-dasharray:none;stroke-opacity:1"
         d="m -1707.7306,8237.4839 c -7.911,1.4 -16.161,0.86 -24.414,0.21" /><path
         id="path40"
         style="fill:none;stroke:#231f20;stroke-width:29.1302;stroke-linecap:round;stroke-linejoin:miter;stroke-miterlimit:4;stroke-dasharray:none;stroke-opacity:1"
         d="m 1815.3884,8154.6039 c 28.23,2.6 56.69,-1.66 85.01,-2.56" /><path
         id="path42"
         style="fill:none;stroke:#231f20;stroke-width:28.296;stroke-linecap:round;stroke-linejoin:miter;stroke-miterlimit:4;stroke-dasharray:none;stroke-opacity:1"
         d="m 1941.1384,8102.9839 c 20.41,1.16 40.53,-0.68 61.37,2.51" /><path
         id="path44"
         style="fill:none;stroke:#231f20;stroke-width:20.3755;stroke-linecap:round;stroke-linejoin:miter;stroke-miterlimit:4;stroke-dasharray:none;stroke-opacity:1"
         d="m 2007.4084,8060.9939 c -8.13,0.04 -16.42,-1.03 -24.8,-2.21" /><path
         id="path46"
         style="fill:none;stroke:#231f20;stroke-width:11.0142;stroke-linecap:round;stroke-linejoin:miter;stroke-miterlimit:4;stroke-dasharray:none;stroke-opacity:1"
         d="m 1984.5484,8032.8939 c 9.11,2.55 19.17,1.18 26.69,-0.33 6.44,-11.69 15.77,-21.81 10.22,-34.96" /><path
         id="path48"
         style="fill:none;stroke:#231f20;stroke-width:29.0714;stroke-linecap:round;stroke-linejoin:miter;stroke-miterlimit:4;stroke-dasharray:none;stroke-opacity:1"
         d="m 2106.8984,7923.7639 c 8.3,0.88 16.43,0.97 24.59,1.02" /><path
         id="path50"
         style="fill:none;stroke:#231f20;stroke-width:29.0714;stroke-linecap:round;stroke-linejoin:miter;stroke-miterlimit:4;stroke-dasharray:none;stroke-opacity:1"
         d="m 2380.5884,7733.3039 c 40.26,-2.38 80.54,-4.77 120.76,-7.13" /><path
         id="path52"
         style="fill:none;stroke:#231f20;stroke-width:28.0706;stroke-linecap:round;stroke-linejoin:miter;stroke-miterlimit:4;stroke-dasharray:none;stroke-opacity:1"
         d="m 2554.2084,7676.3839 c 16.38,0.69 32.71,0.84 49.26,3.22" /><path
         id="path54"
         style="fill:none;stroke:#231f20;stroke-width:22.6172;stroke-linecap:round;stroke-linejoin:miter;stroke-miterlimit:4;stroke-dasharray:none;stroke-opacity:1"
         d="m 2595.7384,7632.2039 c 8.38,1.55 16.63,1.92 24.79,2.24" /><path
         id="path56"
         style="fill:none;stroke:#231f20;stroke-width:11.9307;stroke-linecap:round;stroke-linejoin:miter;stroke-miterlimit:4;stroke-dasharray:none;stroke-opacity:1"
         d="m 2581.3784,7618.3239 c 11.17,-5.8 23.21,-6.98 34.98,-9.41" /><path
         id="path58"
         style="fill:none;stroke:#231f20;stroke-width:19.5761;stroke-linecap:round;stroke-linejoin:miter;stroke-miterlimit:4;stroke-dasharray:none;stroke-opacity:1"
         d="m 2424.6784,7406.6339 c 27.72,6.92 59.09,-5.43 85.78,2.3" /><path
         id="path60"
         style="fill:none;stroke:#231f20;stroke-width:20.0936;stroke-linecap:round;stroke-linejoin:miter;stroke-miterlimit:4;stroke-dasharray:none;stroke-opacity:1"
         d="m 2294.4984,7281.7439 c 29.87,-6.94 65.11,-9.85 96.62,-5.72" /><path
         id="path62"
         style="fill:none;stroke:#231f20;stroke-width:26.0145;stroke-linecap:round;stroke-linejoin:miter;stroke-miterlimit:4;stroke-dasharray:none;stroke-opacity:1"
         d="m -1573.4696,7269.6239 c -35.543,1.09 -79.851,-6.92 -90.851,-29.98 21.355,-18.48 66.828,-0.15 96.14,-12.08" /><path
         id="path64"
         style="fill:none;stroke:#231f20;stroke-width:12.9325;stroke-linecap:round;stroke-linejoin:miter;stroke-miterlimit:4;stroke-dasharray:none;stroke-opacity:1"
         d="m -1442.1256,7178.4039 c -15.82,-11.97 -20.891,-17.95 -20.289,-24.56 37.652,-6.97 87.891,-14.42 125.453,-3.74" /></g></g></svg>
