<?xml version="1.0" encoding="iso-8859-1"?>
<!-- Uploaded to: SVG Repo, www.svgrepo.com, Generator: SVG Repo Mixer Tools -->
<svg fill="#000000" height="800px" width="800px" version="1.1" id="Layer_1" xmlns="http://www.w3.org/2000/svg" xmlns:xlink="http://www.w3.org/1999/xlink" 
	 viewBox="0 0 512 512" xml:space="preserve">
<g>
	<g>
		<g>
			<path d="M221.867,179.2c0,4.71,3.814,8.533,8.533,8.533h102.4c4.719,0,8.533-3.823,8.533-8.533s-3.814-8.533-8.533-8.533H230.4
				C225.681,170.667,221.867,174.49,221.867,179.2z"/>
			<path d="M145.067,238.933h102.4c4.719,0,8.533-3.823,8.533-8.533s-3.814-8.533-8.533-8.533h-102.4
				c-4.719,0-8.533,3.823-8.533,8.533S140.348,238.933,145.067,238.933z"/>
			<path d="M145.067,187.733h51.2c4.719,0,8.533-3.823,8.533-8.533s-3.814-8.533-8.533-8.533h-51.2
				c-4.719,0-8.533,3.823-8.533,8.533S140.348,187.733,145.067,187.733z"/>
			<path d="M247.467,119.467h-102.4c-4.719,0-8.533,3.823-8.533,8.533s3.814,8.533,8.533,8.533h102.4
				c4.719,0,8.533-3.823,8.533-8.533S252.186,119.467,247.467,119.467z"/>
			<path d="M281.6,375.467c-4.719,0-8.533,3.823-8.533,8.533s3.814,8.533,8.533,8.533h34.133c4.719,0,8.533-3.823,8.533-8.533
				s-3.814-8.533-8.533-8.533H281.6z"/>
			<path d="M102.4,17.067h298.667c14.114,0,25.6,11.486,25.6,25.6v93.867h-25.6c-3.448,0-6.571,2.082-7.885,5.265
				c-1.323,3.191-0.589,6.861,1.852,9.301l31.633,31.633v146.534L412.1,343.825c-1.604,1.604-2.5,3.772-2.5,6.042
				c0,2.261,0.896,4.429,2.5,6.033l14.566,14.566v47.667c0,4.71,3.814,8.533,8.533,8.533s8.533-3.823,8.533-8.533v-51.209
				c0-2.261-0.904-4.429-2.5-6.033L430.2,349.867l11.034-11.034c1.596-1.604,2.5-3.772,2.5-6.033V179.2
				c0-2.261-0.904-4.437-2.5-6.033L421.666,153.6H435.2c4.719,0,8.533-3.823,8.533-8.533v-102.4C443.733,19.14,424.593,0,401.067,0
				H102.4c-4.719,0-8.533,3.823-8.533,8.533S97.681,17.067,102.4,17.067z"/>
			<path d="M358.4,332.8c0-4.71-3.814-8.533-8.533-8.533h-102.4c-4.719,0-8.533,3.823-8.533,8.533c0,4.71,3.814,8.533,8.533,8.533
				h102.4C354.586,341.333,358.4,337.51,358.4,332.8z"/>
			<path d="M145.067,392.533h102.4c4.719,0,8.533-3.823,8.533-8.533s-3.814-8.533-8.533-8.533h-102.4
				c-4.719,0-8.533,3.823-8.533,8.533S140.348,392.533,145.067,392.533z"/>
			<path d="M349.867,221.867H281.6c-4.719,0-8.533,3.823-8.533,8.533s3.814,8.533,8.533,8.533h68.267
				c4.719,0,8.533-3.823,8.533-8.533S354.586,221.867,349.867,221.867z"/>
			<path d="M332.8,290.133c4.719,0,8.533-3.823,8.533-8.533s-3.814-8.533-8.533-8.533h-51.2c-4.719,0-8.533,3.823-8.533,8.533
				s3.814,8.533,8.533,8.533H332.8z"/>
			<path d="M503.467,443.733H366.933c-2.27,0-4.437,0.896-6.033,2.5l-2.5,2.5l-2.5-2.5c-1.604-1.604-3.763-2.5-6.033-2.5h-204.8
				c-4.719,0-8.533,3.823-8.533,8.533v17.067c0,14.114-11.486,25.6-25.6,25.6s-25.6-11.486-25.6-25.6v-47.667L99.9,407.1
				c3.337-3.336,3.337-8.73,0-12.066l-14.566-14.566V42.667C85.333,19.14,66.193,0,42.667,0C19.14,0,0,19.14,0,42.667v153.6
				c0,2.261,0.896,4.429,2.5,6.033l11.034,11.034L2.5,224.367C0.896,225.963,0,228.139,0,230.4v102.4
				c0,4.71,3.814,8.533,8.533,8.533h34.133c4.719,0,8.533-3.823,8.533-8.533c0-4.71-3.814-8.533-8.533-8.533h-25.6v-90.334
				l14.566-14.566c3.337-3.336,3.337-8.73,0-12.066l-14.566-14.575V42.667c0-14.114,11.486-25.6,25.6-25.6s25.6,11.486,25.6,25.6
				V384c0,2.261,0.896,4.429,2.5,6.033l11.034,11.034L70.767,412.1c-1.604,1.596-2.5,3.772-2.5,6.033v51.2
				c0,23.526,19.14,42.667,42.667,42.667c23.526,0,42.667-19.14,42.667-42.667V460.8h192.734l6.033,6.033
				c3.337,3.337,8.73,3.337,12.066,0l6.033-6.033h124.467v8.533c0,14.114-11.486,25.6-25.6,25.6h-307.2
				c-4.719,0-8.533,3.823-8.533,8.533s3.814,8.533,8.533,8.533h307.2C492.86,512,512,492.86,512,469.333v-17.067
				C512,447.556,508.186,443.733,503.467,443.733z"/>
			<path d="M145.067,290.133h51.2c4.719,0,8.533-3.823,8.533-8.533s-3.814-8.533-8.533-8.533h-51.2
				c-4.719,0-8.533,3.823-8.533,8.533S140.348,290.133,145.067,290.133z"/>
			<path d="M145.067,341.333h17.067c4.719,0,8.533-3.823,8.533-8.533c0-4.71-3.814-8.533-8.533-8.533h-17.067
				c-4.719,0-8.533,3.823-8.533,8.533C136.533,337.51,140.348,341.333,145.067,341.333z"/>
			<path d="M196.267,324.267c-4.719,0-8.533,3.823-8.533,8.533c0,4.71,3.814,8.533,8.533,8.533h17.067
				c4.719,0,8.533-3.823,8.533-8.533c0-4.71-3.814-8.533-8.533-8.533H196.267z"/>
			<path d="M247.467,273.067H230.4c-4.719,0-8.533,3.823-8.533,8.533s3.814,8.533,8.533,8.533h17.067
				c4.719,0,8.533-3.823,8.533-8.533S252.186,273.067,247.467,273.067z"/>
		</g>
	</g>
</g>
</svg>