<?xml version="1.0" standalone="no"?>
<!DOCTYPE svg PUBLIC "-//W3C//DTD SVG 20010904//EN"
 "http://www.w3.org/TR/2001/REC-SVG-20010904/DTD/svg10.dtd">
<svg version="1.0" xmlns="http://www.w3.org/2000/svg"
 width="700.000000pt" height="700.000000pt" viewBox="0 0 700.000000 700.000000"
 preserveAspectRatio="xMidYMid meet">
<metadata>
Created by potrace 1.14, written by Peter Selinger 2001-2017
</metadata>
<g transform="translate(0.000000,700.000000) scale(0.100000,-0.100000)"
fill="#000000" stroke="none">
<path d="M1250 6993 c-141 -15 -348 -77 -480 -143 -386 -196 -644 -533 -742
-971 l-23 -104 0 -2275 0 -2275 23 -104 c128 -569 527 -968 1095 -1093 l102
-23 2275 0 2275 0 100 22 c137 31 213 56 331 113 395 187 668 536 766 983 l23
102 0 2275 0 2275 -23 102 c-99 447 -371 796 -766 983 -118 56 -164 73 -306
108 l-105 27 -2255 1 c-1240 0 -2271 -1 -2290 -3z m1492 -2405 l3 -912 162
229 c90 126 407 537 705 912 l543 682 468 1 c257 0 467 -2 467 -5 0 -3 -311
-399 -691 -881 -439 -558 -689 -882 -686 -893 2 -9 313 -506 691 -1105 378
-599 690 -1095 693 -1102 4 -12 -73 -14 -473 -14 l-479 0 -510 822 c-280 452
-517 830 -526 841 -15 19 -21 15 -192 -108 l-177 -127 0 -714 0 -714 -425 0
-425 0 0 2000 0 2000 425 0 425 0 2 -912z"/>
</g>
</svg>
