<?xml version="1.0" encoding="UTF-8" standalone="no"?>
<svg
   preserveAspectRatio="none"
   viewBox="0 0 652.09406 155.00406"
   height="155.00406"
   width="652.09406"
   xml:space="preserve"
   id="svg2"
   version="1.1"
   sodipodi:docname="2.svg"
   inkscape:version="1.3 (0e150ed6c4, 2023-07-21)"
   xmlns:inkscape="http://www.inkscape.org/namespaces/inkscape"
   xmlns:sodipodi="http://sodipodi.sourceforge.net/DTD/sodipodi-0.dtd"
   xmlns="http://www.w3.org/2000/svg"
   xmlns:svg="http://www.w3.org/2000/svg"
   xmlns:rdf="http://www.w3.org/1999/02/22-rdf-syntax-ns#"
   xmlns:cc="http://creativecommons.org/ns#"
   xmlns:dc="http://purl.org/dc/elements/1.1/"><sodipodi:namedview
     id="namedview1"
     pagecolor="#ffffff"
     bordercolor="#000000"
     borderopacity="0.25"
     inkscape:showpageshadow="2"
     inkscape:pageopacity="0.0"
     inkscape:pagecheckerboard="0"
     inkscape:deskcolor="#d1d1d1"
     inkscape:zoom="0.57434705"
     inkscape:cx="277.70666"
     inkscape:cy="213.28568"
     inkscape:window-width="1920"
     inkscape:window-height="1017"
     inkscape:window-x="-8"
     inkscape:window-y="-8"
     inkscape:window-maximized="1"
     inkscape:current-layer="g12" /><metadata
     id="metadata8"><rdf:RDF><cc:Work
         rdf:about=""><dc:format>image/svg+xml</dc:format><dc:type
           rdf:resource="http://purl.org/dc/dcmitype/StillImage" /></cc:Work></rdf:RDF></metadata><defs
     id="defs6" /><g
     transform="matrix(1.3333333,0,0,-1.3333333,-25.905482,710.85407)"
     id="g10"><g
       transform="matrix(0.1,0,0,0.1,253.92448,-150.50797)"
       id="g12"><path
         id="path66"
         style="fill:#16643d;fill-opacity:1;fill-rule:evenodd;stroke:none"
         d="m -1457.2982,5745.8149 c 50.02,5.33 72.63,-8.08 116.21,-7.18 8.16,27.98 -141.9101,13.97 -116.21,7.18 z m 2608.8399,71.91 c 12.12,-18.19 -52.95,-35.98 -52.78,-35.94 -288.02996,-134.13 -1221.16992,-102.97 -1647.67992,-107.83 14.61,25.87 68.5,3.57 84.49,14.36 -115.44,2.83 -207.75,19.94 -306.35,14.35 -181.71,47.06 -538.24998,5.16 -739.39008,43.15 7.83,6.71 19.26,10.92 31.72,14.36 -62.66,5.24 -169.933,49.46 -232.335,50.37 -0.774,36.48 82.773,15.55 116.125,28.75 -2.149,24.88 -78.391,-0.65 -73.926,28.75 81.574,0.94 93.437,-24.15 158.416,-7.18 -14.61,16.38 -73.49,2.67 -105.549,7.18 1.719,8.43 19.254,6.06 31.633,7.18 -61.805,37.05 -161.77,41.08 -264.059,64.72 9.199,29.72 61.719,29.89 116.211,28.78 -41.945,24.99 -149.562,19.31 -126.781,50.32 -53.813,0.67 -83.465,-15.06 -137.274,-14.4 29.657,15.74 70.657,23.82 105.641,35.96 -17.965,18.63 -49.172,-13.93 -84.496,-7.16 14.355,35.69 -79.336,-9.37 -126.781,0 14.008,15.15 -5.16,21.21 10.57,43.11 -27.766,-7.44 -64.812,-8.6 -105.641,-7.2 50.973,39.6 158.161,40.91 242.996,57.54 -58.363,21.47 -154.121,-27.41 -211.277,-7.19 43.235,11.32 79.938,27.07 116.211,43.13 -34.469,43.23 -137.441,-33.94 -158.5,21.57 42.289,0.02 63.434,14.37 105.641,14.37 -57.164,19.54 -114.668,-22.43 -190.141,-14.37 14.098,14.4 46.938,16.03 73.922,21.58 -28.535,18.97 -70.055,-14.25 -116.121,-7.21 13.926,36.02 100.137,22.92 126.699,50.33 -19.512,21.96 -50.113,-8.29 -84.5,0 37.824,33.65 -9.019,16.87 -52.769,14.38 -4.305,26.19 24.496,49.19 84.492,50.33 31.289,54.34 81.914,39.43 158.418,64.72 -52.524,9.26 -156.614,-8.33 -211.2,-21.57 -14.265,24.34 92.321,28 126.7,43.12 -23.207,19.99 -75.297,-1.01 -105.641,0 5.504,17.86 25.789,25.62 42.293,35.96 -34.812,-0.31 -52.602,-12.12 -95.062,-7.18 63.601,35.75 150.757,55.57 242.91,71.9 -70.403,-4 -141.399,2.9 -221.77,0 47.278,46.91 148.36,57.16 253.485,64.7 -58.364,15.59 -140.793,-14.33 -211.278,-14.37 73.832,88.21 222.363,101.02 337.973,129.4 -10.313,20.16 -28.106,-10.44 -42.199,7.2 547.2841,102.03 1061.29408,131.3 1721.61408,143.8 511.43,9.68 1185.40996,7.83 1647.76992,-28.76 -15.22,-12.64 -9.72,-16.4 21.05,-14.38 -4.55,-8.83 -13.49,-14.77 -31.63,-14.38 361.54,-33.35 708.54,3.94 929.45,-50.33 -21.16,-48.69 -98.42,-33.02 -179.56,-50.32 25,-16.55 94.8,-2.58 137.35,-7.2 7.82,-32.56 -29.05,11 -21.14,-21.58 43.75,-31.63 162.36,28.54 168.98,-21.57 -88.88,-4.21 -162.11,-19.06 -253.49,-21.55 95.07,-16.75 235.87,-2.44 348.56,-7.21 -15.47,-22.99 -73.84,-16.84 -105.65,-28.75 12.99,-29.11 83.13,-8.23 116.22,-7.19 -1.89,-32.28 -76.16,-15.28 -63.43,-57.51 1.37,-15.88 44.86,-3.05 63.43,-7.2 -31.28,-43.73 -167.79,-28.36 -211.27,-43.12 87.24,-11.2 165.2,-36.77 211.27,-7.21 10.75,-4.66 10.91,-16.52 31.64,-14.37 -22.88,-35.33 -104.7,-6.11 -84.5,-57.53 -69.8,11.59 -125.58,-16.63 -147.85,-14.37 -8.77,-20.33 14.88,-18.63 10.58,-35.95 46.16,-5.05 59.48,12.22 105.63,7.19 -17.1,-38.91 -121.1,-14.2 -147.93,-28.77 48.31,-24.24 147.07,4.02 200.72,-7.2 -34.48,-13.97 -152.58,-35.69 -200.72,-7.18 -7.3,-23.74 -49.16,-24.04 -63.35,-43.13 89.57,16.4 174.24,-19.51 211.28,0 21.07,-52.79 -146.21,-39.42 -221.84,-50.34 44.78,-18.18 133.83,-4.99 168.98,7.19 -14.43,-36.52 -128.24,-38.89 -137.26,-21.57 -21.32,-19.04 -65.59,-22.45 -116.21,-21.55 59.9,-24.74 163.13,16.37 190.12,-21.58 -4.64,-37.6 -96.09,-16.09 -137.26,-28.75 -11.35,-26.86 26.21,-20.5 21.05,-43.15 -326.11,-22.45 -612.52,-71.94 -950.58,-86.26 53.55,-31.54 83.98,-3.69 137.36,-28.79 -30.86,-29.31 -73.24,-50.85 -116.21,-71.9 -24.85,0.13 3.86,19.64 21.14,14.39 -25.96,19.52 -72.37,-7.82 -105.64,-7.22 1.28,-15.81 44.78,-3 63.35,-7.17 -27.68,-15.78 32.75,-23.86 0,-43.11 -40.14,1.81 -75.13,5.76 -137.27,-7.22 -4.56,-11.6 39.36,-24.07 42.2,-7.17" /></g></g></svg>
