<?xml version="1.0" encoding="UTF-8" standalone="no"?>
<!-- Uploaded to: SVG Repo, www.svgrepo.com, Generator: SVG Repo Mixer Tools -->

<svg
   fill="#000000"
   width="643.28979"
   height="282.78229"
   viewBox="0 0 25.731592 11.311292"
   version="1.1"
   id="svg3"
   sodipodi:docname="icon.svg"
   inkscape:version="1.3 (0e150ed6c4, 2023-07-21)"
   xmlns:inkscape="http://www.inkscape.org/namespaces/inkscape"
   xmlns:sodipodi="http://sodipodi.sourceforge.net/DTD/sodipodi-0.dtd"
   xmlns="http://www.w3.org/2000/svg"
   xmlns:svg="http://www.w3.org/2000/svg"
   xmlns:rdf="http://www.w3.org/1999/02/22-rdf-syntax-ns#"
   xmlns:cc="http://creativecommons.org/ns#"
   xmlns:dc="http://purl.org/dc/elements/1.1/">
  <defs
     id="defs3" />
  <sodipodi:namedview
     id="namedview3"
     pagecolor="#ffffff"
     bordercolor="#000000"
     borderopacity="0.25"
     inkscape:showpageshadow="2"
     inkscape:pageopacity="0.0"
     inkscape:pagecheckerboard="0"
     inkscape:deskcolor="#d1d1d1"
     inkscape:zoom="1.02625"
     inkscape:cx="322.04629"
     inkscape:cy="141.77832"
     inkscape:window-width="1920"
     inkscape:window-height="1017"
     inkscape:window-x="-8"
     inkscape:window-y="-8"
     inkscape:window-maximized="1"
     inkscape:current-layer="svg3" />
  <title
     id="title1">file_type_hlsl</title>
  <polygon
     points="3.958,21.947 2,21.947 2,10.044 3.958,10.044 3.958,14.792 7.56,14.792 7.56,10.044 9.525,10.044 9.525,21.947 7.56,21.947 7.56,17.1 3.958,17.1 "
     style="fill:#0000ff"
     id="polygon1"
     transform="matrix(0.91898538,0,0,0.91898538,-1.8379708,-9.0461317)" />
  <polygon
     points="13.472,19.773 16.692,19.773 16.692,21.947 11.513,21.947 11.513,10.044 13.472,10.044 "
     style="fill:#0000ff"
     id="polygon2"
     transform="matrix(0.91898538,0,0,0.91898538,-1.8379708,-9.0461317)" />
  <path
     d="M 14.209352,10.703783 V 8.2620387 a 3.3781902,3.3781902 0 0 0 1.053156,0.835358 2.5814299,2.5814299 0 0 0 1.147814,0.275695 1.88392,1.88392 0 0 0 0.593664,-0.08455 1.2029519,1.2029519 0 0 0 0.423652,-0.231584 0.94563595,0.94563595 0 0 0 0.25364,-0.351053 1.131271,1.131271 0 0 0 0.08362,-0.439275 1.194681,1.194681 0 0 0 -0.133253,-0.572528 1.7525051,1.7525051 0 0 0 -0.367594,-0.465006 3.7467033,3.7467033 0 0 0 -0.551392,-0.411706 q -0.317968,-0.197582 -0.685562,-0.403434 a 3.7172958,3.7172958 0 0 1 -1.395939,-1.304041 3.5693392,3.5693392 0 0 1 -0.459493,-1.861864 3.8891461,3.8891461 0 0 1 0.250883,-1.470376 2.7753358,2.7753358 0 0 1 0.683725,-1.01088401 2.6999791,2.6999791 0 0 1 0.999857,-0.582637 3.829412,3.829412 0 0 1 1.203871,-0.1837969985 5.3448189,5.3448189 0 0 1 1.102782,0.1020069985 3.4921444,3.4921444 0 0 1 0.888658,0.31705 V 2.7003357 a 2.6273792,2.6273792 0 0 0 -0.437436,-0.33543 2.951781,2.951781 0 0 0 -0.487062,-0.240774 2.8488547,2.8488547 0 0 0 -0.493495,-0.142443 2.5676452,2.5676452 0 0 0 -0.470522,-0.04595 1.8324568,1.8324568 0 0 0 -0.556905,0.07996 1.2378733,1.2378733 0 0 0 -0.423652,0.225152 1.003532,1.003532 0 0 0 -0.267425,0.346457 1.0513193,1.0513193 0 0 0 -0.0919,0.453979 1.1027824,1.1027824 0 0 0 0.105683,0.492577 1.5227588,1.5227588 0 0 0 0.301428,0.411705 3.1806084,3.1806084 0 0 0 0.473277,0.381379 c 0.183797,0.124982 0.395164,0.252721 0.630424,0.385054 a 6.5192822,6.5192822 0 0 1 0.86017,0.583557 3.4112737,3.4112737 0 0 1 0.655237,0.697509 3.0041632,3.0041632 0 0 1 0.418138,0.888659 4.2025201,4.2025201 0 0 1 0.1452,1.163436 4.079376,4.079376 0 0 1 -0.254559,1.536544 2.6540297,2.6540297 0 0 1 -0.68832,1.0108833 2.5942957,2.5942957 0 0 1 -1.010884,0.551392 4.3578286,4.3578286 0 0 1 -1.217655,0.167255 5.0323639,5.0323639 0 0 1 -1.250739,-0.152552 3.1337401,3.1337401 0 0 1 -1.031102,-0.454898 z"
     style="fill:#0000ff;stroke-width:0.918986"
     id="path2" />
  <polygon
     points="26.78,19.773 30,19.773 30,21.947 24.822,21.947 24.822,10.044 26.78,10.044 "
     style="fill:#0000ff"
     id="polygon3"
     transform="matrix(0.91898538,0,0,0.91898538,-1.8379708,-9.0461317)" />
  <metadata
     id="metadata1">
    <rdf:RDF>
      <cc:Work
         rdf:about="">
        <dc:title>file_type_hlsl</dc:title>
      </cc:Work>
    </rdf:RDF>
  </metadata>
</svg>
