<?xml version="1.0" encoding="utf-8"?>
<!-- Uploaded to: SVG Repo, www.svgrepo.com, Generator: SVG Repo Mixer Tools -->
<svg width="800px" height="800px" viewBox="0 0 32 32" fill="none" xmlns="http://www.w3.org/2000/svg">
<g clip-path="url(#clip0_901_1534)">
<path fill-rule="evenodd" clip-rule="evenodd" d="M17.2162 2.02159C17.6662 3.14259 21.1742 11.8636 21.1742 11.8636C21.1742 11.8636 28.8062 12.5426 29.9552 12.6386C31.2142 12.7186 31.3132 14.2796 30.4962 14.9146C29.6812 15.5466 23.7612 20.1406 23.7612 20.1406C23.7612 20.1406 25.5602 27.4376 26.0832 29.4256C26.5732 31.2986 25.0702 31.2486 24.1562 30.6096C23.1212 29.8886 16.0012 24.7966 16.0012 24.7966C16.0012 24.7966 8.8252 29.9276 7.8372 30.6176C6.9872 31.2086 5.4002 31.3376 6.0402 29.4536C6.5052 27.8636 8.7552 20.1406 8.7552 20.1406C8.7552 20.1406 2.1792 15.3286 1.4812 14.7916C0.7792 14.2556 0.7572 12.7596 2.0092 12.6526C3.2632 12.5466 11.3432 11.8636 11.3432 11.8636C11.3432 11.8636 14.4752 3.18959 14.8962 2.04259C15.3042 0.671592 16.6632 0.640592 17.2162 2.02159Z" stroke="#000000" stroke-width="2" stroke-linecap="round" stroke-linejoin="round"/>
</g>
<defs>
<clipPath id="clip0_901_1534">
<rect width="32" height="32" fill="white"/>
</clipPath>
</defs>
</svg>